<svg width="219" height="159" viewBox="0 0 219 159" fill="none" xmlns="http://www.w3.org/2000/svg">
<path d="M139.558 119.197V157.526H43.6874C32.7642 157.526 23.877 148.928 23.877 138.361C23.877 127.795 32.7642 119.197 43.6874 119.197H139.558Z" fill="#F2F2F2"/>
<path d="M141.913 157.231C141.913 157.622 141.758 157.997 141.482 158.273C141.206 158.55 140.832 158.705 140.441 158.705H41.9797C36.6321 158.705 31.5035 156.577 27.7221 152.79C23.9408 149.002 21.8164 143.865 21.8164 138.509C21.8164 133.153 23.9408 128.016 27.7221 124.228C31.5035 120.441 36.6321 118.313 41.9797 118.313H140.441C140.832 118.313 141.206 118.468 141.482 118.745C141.758 119.021 141.913 119.396 141.913 119.787C141.913 120.178 141.758 120.553 141.482 120.83C141.206 121.106 140.832 121.261 140.441 121.261H41.9797C37.4128 121.261 33.0328 123.079 29.8035 126.313C26.5742 129.548 24.76 133.935 24.76 138.509C24.76 143.084 26.5742 147.471 29.8035 150.705C33.0328 153.94 37.4128 155.757 41.9797 155.757H140.441C140.832 155.757 141.206 155.912 141.482 156.189C141.758 156.465 141.913 156.84 141.913 157.231Z" fill="#265791"/>
<path d="M139.557 128.042H36.5326C36.4546 128.042 36.3797 128.011 36.3245 127.956C36.2693 127.901 36.2383 127.826 36.2383 127.747C36.2383 127.669 36.2693 127.594 36.3245 127.539C36.3797 127.484 36.4546 127.453 36.5326 127.453H139.557C139.635 127.453 139.71 127.484 139.765 127.539C139.82 127.594 139.851 127.669 139.851 127.747C139.851 127.826 139.82 127.901 139.765 127.956C139.71 128.011 139.635 128.042 139.557 128.042Z" fill="#CCCCCC"/>
<path d="M139.557 135.118H36.5326C36.4546 135.118 36.3797 135.087 36.3245 135.032C36.2693 134.977 36.2383 134.902 36.2383 134.824C36.2383 134.745 36.2693 134.67 36.3245 134.615C36.3797 134.56 36.4546 134.529 36.5326 134.529H139.557C139.635 134.529 139.71 134.56 139.765 134.615C139.82 134.67 139.851 134.745 139.851 134.824C139.851 134.902 139.82 134.977 139.765 135.032C139.71 135.087 139.635 135.118 139.557 135.118Z" fill="#CCCCCC"/>
<path d="M139.557 142.195H36.5326C36.4546 142.195 36.3797 142.164 36.3245 142.108C36.2693 142.053 36.2383 141.978 36.2383 141.9C36.2383 141.822 36.2693 141.747 36.3245 141.691C36.3797 141.636 36.4546 141.605 36.5326 141.605H139.557C139.635 141.605 139.71 141.636 139.765 141.691C139.82 141.747 139.851 141.822 139.851 141.9C139.851 141.978 139.82 142.053 139.765 142.108C139.71 142.164 139.635 142.195 139.557 142.195Z" fill="#CCCCCC"/>
<path d="M139.557 149.27H36.5326C36.4546 149.27 36.3797 149.239 36.3245 149.184C36.2693 149.129 36.2383 149.054 36.2383 148.975C36.2383 148.897 36.2693 148.822 36.3245 148.767C36.3797 148.712 36.4546 148.681 36.5326 148.681H139.557C139.635 148.681 139.71 148.712 139.765 148.767C139.82 148.822 139.851 148.897 139.851 148.975C139.851 149.054 139.82 149.129 139.765 149.184C139.71 149.239 139.635 149.27 139.557 149.27Z" fill="#CCCCCC"/>
<path d="M213.651 126.412L189.642 156.258L114.989 96.0086C106.484 89.144 104.949 76.8643 111.568 68.6361C118.187 60.4078 130.493 59.2984 138.998 66.163L213.651 126.412Z" fill="#F2F2F2"/>
<path d="M191.662 157.508C191.417 157.813 191.062 158.007 190.674 158.049C190.286 158.091 189.897 157.976 189.593 157.731L112.923 95.8537C108.759 92.493 106.098 87.6131 105.526 82.2875C104.954 76.9619 106.518 71.6268 109.873 67.4559C113.228 63.285 118.1 60.62 123.417 60.0471C128.734 59.4742 134.06 61.0403 138.224 64.401L214.895 126.279C215.045 126.4 215.17 126.55 215.263 126.72C215.356 126.89 215.414 127.076 215.435 127.269C215.456 127.461 215.439 127.656 215.384 127.842C215.33 128.028 215.239 128.201 215.118 128.352C214.997 128.503 214.847 128.628 214.677 128.721C214.507 128.814 214.321 128.872 214.129 128.893C213.937 128.913 213.742 128.896 213.557 128.841C213.371 128.787 213.198 128.696 213.048 128.574L136.378 66.6968C134.617 65.2747 132.594 64.2139 130.423 63.5751C128.253 62.9363 125.979 62.732 123.73 62.9739C121.481 63.2158 119.302 63.8991 117.316 64.9848C115.331 66.0705 113.579 67.5373 112.16 69.3015C110.74 71.0656 109.682 73.0926 109.045 75.2665C108.408 77.4404 108.205 79.7187 108.448 81.9713C108.69 84.2238 109.373 86.4064 110.458 88.3945C111.543 90.3826 113.008 92.1371 114.769 93.5579L191.44 155.435C191.743 155.681 191.938 156.037 191.979 156.426C192.021 156.814 191.907 157.204 191.662 157.508Z" fill="#F1B814"/>
<path d="M208.112 133.3L127.889 68.5547C127.859 68.5304 127.834 68.5004 127.815 68.4664C127.797 68.4324 127.785 68.3951 127.781 68.3566C127.777 68.3181 127.78 68.2792 127.791 68.2421C127.802 68.2049 127.82 68.1703 127.844 68.1401C127.869 68.11 127.899 68.0849 127.933 68.0663C127.966 68.0478 128.004 68.0361 128.042 68.032C128.081 68.0278 128.119 68.0313 128.157 68.0422C128.194 68.0531 128.228 68.0712 128.258 68.0955L208.481 132.84C208.511 132.865 208.536 132.895 208.555 132.929C208.574 132.963 208.585 133 208.589 133.038C208.594 133.077 208.59 133.116 208.579 133.153C208.568 133.19 208.55 133.225 208.526 133.255C208.502 133.285 208.472 133.31 208.438 133.329C208.404 133.348 208.367 133.359 208.328 133.363C208.29 133.367 208.251 133.364 208.214 133.353C208.177 133.342 208.142 133.324 208.112 133.3V133.3Z" fill="#CCCCCC"/>
<path d="M203.68 138.81L123.457 74.0647C123.396 74.0156 123.358 73.9444 123.349 73.8667C123.341 73.789 123.364 73.7112 123.413 73.6504C123.462 73.5895 123.533 73.5506 123.61 73.5422C123.688 73.5338 123.766 73.5566 123.826 73.6055L204.049 138.35C204.079 138.375 204.105 138.405 204.123 138.439C204.142 138.473 204.153 138.51 204.158 138.548C204.162 138.587 204.158 138.626 204.147 138.663C204.137 138.7 204.118 138.735 204.094 138.765C204.07 138.795 204.04 138.82 204.006 138.839C203.972 138.858 203.935 138.869 203.896 138.873C203.858 138.877 203.819 138.874 203.782 138.863C203.745 138.852 203.71 138.834 203.68 138.81Z" fill="#CCCCCC"/>
<path d="M199.247 144.32L119.024 79.5747C118.963 79.5257 118.924 79.4544 118.916 79.3767C118.907 79.2989 118.93 79.221 118.979 79.1601C119.028 79.0993 119.099 79.0603 119.177 79.052C119.255 79.0436 119.332 79.0665 119.393 79.1155L199.616 143.86C199.646 143.885 199.671 143.915 199.69 143.949C199.708 143.983 199.72 144.02 199.724 144.058C199.728 144.097 199.725 144.136 199.714 144.173C199.703 144.21 199.685 144.245 199.661 144.275C199.636 144.305 199.606 144.33 199.572 144.349C199.538 144.367 199.501 144.379 199.463 144.383C199.424 144.387 199.386 144.384 199.348 144.373C199.311 144.362 199.277 144.344 199.247 144.32V144.32Z" fill="#CCCCCC"/>
<path d="M194.815 149.83L114.592 85.085C114.562 85.0607 114.537 85.0307 114.518 84.9967C114.5 84.9627 114.488 84.9254 114.484 84.8869C114.48 84.8484 114.483 84.8095 114.494 84.7723C114.505 84.7352 114.523 84.7005 114.548 84.6704C114.572 84.6402 114.602 84.6152 114.636 84.5966C114.67 84.5781 114.707 84.5664 114.745 84.5622C114.784 84.5581 114.823 84.5616 114.86 84.5725C114.897 84.5834 114.931 84.6015 114.961 84.6258L195.184 149.371C195.215 149.395 195.24 149.425 195.258 149.459C195.277 149.493 195.288 149.53 195.293 149.569C195.297 149.607 195.293 149.646 195.282 149.683C195.272 149.721 195.253 149.755 195.229 149.785C195.205 149.816 195.175 149.841 195.141 149.859C195.107 149.878 195.07 149.889 195.031 149.894C194.993 149.898 194.954 149.894 194.917 149.883C194.88 149.872 194.845 149.854 194.815 149.83Z" fill="#CCCCCC"/>
<path d="M218.706 159H0.294355C0.216287 159 0.141417 158.969 0.0862143 158.913C0.0310121 158.858 0 158.783 0 158.705C0 158.627 0.0310121 158.552 0.0862143 158.497C0.141417 158.441 0.216287 158.41 0.294355 158.41H218.706C218.784 158.41 218.859 158.441 218.914 158.497C218.969 158.552 219 158.627 219 158.705C219 158.783 218.969 158.858 218.914 158.913C218.859 158.969 218.784 159 218.706 159Z" fill="#CCCCCC"/>
<path d="M99.5162 115.169L96.1512 115.168L94.5508 102.167L99.5174 102.168L99.5162 115.169Z" fill="#FFB8B8"/>
<path d="M93.7464 114.206H100.236V118.298H89.6602C89.6602 117.761 89.7658 117.229 89.9712 116.732C90.1765 116.236 90.4775 115.784 90.857 115.404C91.2364 115.024 91.6869 114.723 92.1826 114.517C92.6784 114.311 93.2098 114.206 93.7464 114.206Z" fill="#2F2E41"/>
<path d="M65.1373 115.169L61.7723 115.168L60.1719 102.167L65.1385 102.168L65.1373 115.169Z" fill="#FFB8B8"/>
<path d="M59.3675 114.206H65.8573V118.298H55.2813C55.2812 117.761 55.3869 117.229 55.5923 116.732C55.7976 116.236 56.0986 115.784 56.4781 115.404C56.8575 115.024 57.308 114.723 57.8037 114.517C58.2995 114.311 58.8309 114.206 59.3675 114.206Z" fill="#2F2E41"/>
<path d="M85.8703 26.0937C89.8631 26.0937 93.0999 22.8516 93.0999 18.8523C93.0999 14.8529 89.8631 11.6108 85.8703 11.6108C81.8775 11.6108 78.6406 14.8529 78.6406 18.8523C78.6406 22.8516 81.8775 26.0937 85.8703 26.0937Z" fill="#FFB8B8"/>
<path d="M46.545 43.7404C46.8384 43.4629 47.189 43.2532 47.572 43.1261C47.9551 42.999 48.3613 42.9576 48.7621 43.0047C49.1628 43.0519 49.5484 43.1865 49.8916 43.399C50.2348 43.6116 50.5273 43.8969 50.7485 44.2349L56.946 43.0607L58.577 46.659L49.8017 48.1941C49.2101 48.5287 48.5165 48.6343 47.8524 48.4909C47.1883 48.3475 46.5998 47.9651 46.1984 47.4161C45.7969 46.8671 45.6105 46.1897 45.6744 45.5122C45.7383 44.8348 46.0481 44.2043 46.545 43.7404V43.7404Z" fill="#FFB8B8"/>
<path d="M80.2322 30.6542L80.3133 30.7772L70.1504 37.483L53.0018 42.9679C52.7745 43.0411 52.5795 43.1909 52.4501 43.3918C52.3206 43.5928 52.2647 43.8325 52.2918 44.0701L52.6659 47.2975C52.6825 47.4404 52.7287 47.5782 52.8016 47.7021C52.8745 47.826 52.9724 47.9333 53.0891 48.017C53.2058 48.1008 53.3386 48.1593 53.4792 48.1886C53.6197 48.218 53.7649 48.2176 53.9052 48.1875L70.0446 44.7224C70.8257 44.5556 71.5643 44.2299 72.2145 43.7655L83.6319 35.629C84.0458 35.3324 84.376 34.9336 84.5905 34.4713C84.805 34.0091 84.8964 33.4991 84.8559 32.9909C84.814 32.4821 84.6406 31.993 84.3528 31.5716C84.0649 31.1503 83.6725 30.8113 83.2142 30.5879C82.7558 30.3645 82.2473 30.2645 81.7387 30.2977C81.2301 30.3309 80.7388 30.4962 80.3133 30.7772L80.2322 30.6542Z" fill="#CCCCCC"/>
<path d="M96.2114 111.479C95.9531 111.479 95.7004 111.404 95.4841 111.263C95.2678 111.121 95.0973 110.92 94.9934 110.683L79.5663 72.5016C79.5303 72.4188 79.4698 72.349 79.393 72.3017C79.3162 72.2543 79.2268 72.2317 79.1368 72.2367C79.0467 72.2418 78.9604 72.2744 78.8894 72.3301C78.8184 72.3858 78.7661 72.4619 78.7396 72.5483L66.1535 109.719C66.1004 109.892 66.0125 110.052 65.8952 110.19C65.7779 110.328 65.6338 110.44 65.4716 110.52C65.3095 110.6 65.1327 110.645 64.9523 110.654C64.7718 110.663 64.5914 110.635 64.4222 110.572L60.2016 108.986C59.9726 108.901 59.7716 108.754 59.621 108.561C59.4705 108.368 59.3763 108.137 59.3489 107.894C57.4502 91.3266 74.0078 49.508 74.1753 49.0877L74.2216 48.9712L89.3153 52.3154L89.3467 52.3497C95.3686 58.9298 100.318 100.432 101.249 108.685C101.284 108.983 101.216 109.284 101.057 109.538C100.898 109.793 100.658 109.985 100.375 110.084L96.6495 111.404C96.5088 111.454 96.3606 111.479 96.2114 111.479Z" fill="#2F2E41"/>
<path d="M83.2058 53.6617C79.5489 53.6617 75.4718 52.9314 74.2168 49.9171L74.188 49.8479L74.227 49.7837C75.2176 48.1558 76.5268 45.3787 75.8231 44.8574C74.4369 43.8309 73.7642 42.142 73.824 39.8378C73.9536 34.8357 77.3564 30.3946 82.2913 28.7867H82.2914C83.6689 28.3451 85.0707 27.9836 86.4898 27.7039C87.5243 27.4948 88.5923 27.5178 89.6169 27.7713C90.6416 28.0247 91.5974 28.5023 92.4159 29.1698C93.2446 29.8416 93.9146 30.6889 94.3775 31.6509C94.8404 32.6129 95.0849 33.6656 95.0933 34.7335C95.1451 40.0791 94.3234 47.5243 90.1152 52.6359C89.9179 52.873 89.6435 53.0329 89.3401 53.0873C87.3155 53.4541 85.2632 53.6463 83.2058 53.6617Z" fill="#CCCCCC"/>
<path d="M81.8457 53.4615C82.0447 52.7464 82.5175 52.1389 83.1612 51.771C83.8048 51.4031 84.5675 51.3045 85.2833 51.4966C85.4295 51.5375 85.572 51.5904 85.7095 51.6547L90.4153 47.3652L93.6879 49.5736L86.9584 55.5384C86.6546 56.0872 86.1762 56.5184 85.5994 56.7634C85.0226 57.0085 84.3806 57.0533 83.7755 56.8907C83.423 56.7941 83.0931 56.6284 82.805 56.4033C82.5168 56.1782 82.276 55.8981 82.0966 55.5792C81.9171 55.2603 81.8025 54.909 81.7595 54.5455C81.7164 54.182 81.7458 53.8135 81.8457 53.4615Z" fill="#FFB8B8"/>
<path d="M89.6699 53.516C89.3646 53.5162 89.0686 53.4104 88.8324 53.2167L86.9766 51.6977C86.8219 51.5711 86.6978 51.4111 86.6136 51.2296C86.5294 51.0482 86.4873 50.85 86.4904 50.6499C86.4935 50.4498 86.5417 50.253 86.6315 50.0743C86.7212 49.8955 86.8502 49.7394 87.0087 49.6176L94.792 43.6385C94.8842 43.5672 94.9447 43.4624 94.9604 43.3468C94.976 43.2312 94.9455 43.1141 94.8754 43.0209L90.0714 36.6595C89.5133 35.9228 89.2334 35.0122 89.2812 34.0887C89.329 33.1652 89.7015 32.2884 90.3327 31.6136C90.9974 30.8944 91.9078 30.4519 92.8832 30.3738C93.8585 30.2956 94.8276 30.5876 95.598 31.1918L95.6284 31.2239L100.645 38.4185C101.187 38.8445 101.624 39.3904 101.921 40.0134C102.218 40.6365 102.367 41.3199 102.357 42.0102C102.347 42.7006 102.177 43.3792 101.862 43.9931C101.546 44.607 101.094 45.1396 100.539 45.5493L90.4584 53.2558C90.2302 53.4248 89.9538 53.516 89.6699 53.516Z" fill="#CCCCCC"/>
<path d="M45.2167 29.8025C40.9163 29.7742 36.6698 28.8427 32.7513 27.068C32.518 26.9638 32.3201 26.794 32.1815 26.5792C32.0429 26.3643 31.9696 26.1137 31.9707 25.858V15.1207C31.9711 14.7689 32.1108 14.4317 32.3591 14.183C32.6074 13.9342 32.9441 13.7943 33.2953 13.7939H57.1381C57.4892 13.7943 57.8259 13.9343 58.0743 14.183C58.3226 14.4317 58.4623 14.7689 58.4626 15.1207V25.858C58.4637 26.1138 58.3905 26.3643 58.2519 26.5792C58.1133 26.794 57.9153 26.9638 57.6821 27.068C53.7636 28.8427 49.517 29.7742 45.2167 29.8025Z" fill="#265791"/>
<path d="M45.2138 21.1043C45.0371 21.1044 44.8621 21.0692 44.6991 21.0006L25.7921 13.0107C25.5483 12.9077 25.3409 12.7339 25.1966 12.5117C25.0523 12.2895 24.9778 12.0291 24.9826 11.7641C24.9875 11.4991 25.0715 11.2416 25.2238 11.0248C25.3761 10.8081 25.5897 10.642 25.8372 10.548L44.7444 3.36352C45.0489 3.24728 45.3856 3.24799 45.6897 3.36554L64.3435 10.55C64.5896 10.6447 64.8018 10.8109 64.953 11.0271C65.1042 11.2433 65.1876 11.4999 65.1925 11.7638C65.1973 12.0278 65.1235 12.2872 64.9803 12.5089C64.8372 12.7306 64.6312 12.9045 64.3889 13.0083L45.7348 20.998C45.5701 21.0683 45.3929 21.1044 45.2138 21.1043Z" fill="#265791"/>
<path d="M34.1782 27.7988C35.1536 27.7988 35.9444 27.0067 35.9444 26.0297C35.9444 25.0528 35.1536 24.2607 34.1782 24.2607C33.2028 24.2607 32.4121 25.0528 32.4121 26.0297C32.4121 27.0067 33.2028 27.7988 34.1782 27.7988Z" fill="#3F3D56"/>
<path opacity="0.2" d="M64.454 11.8742L45.7998 19.8639C45.6544 19.9262 45.4979 19.9585 45.3398 19.9589C45.1816 19.9593 45.025 19.9278 44.8792 19.8662L25.9723 11.8765C25.7348 11.7786 25.5367 11.6042 25.4093 11.3809C25.3259 11.5257 25.2743 11.6866 25.2577 11.8529C25.2412 12.0192 25.2602 12.1872 25.3134 12.3456C25.3667 12.504 25.453 12.6493 25.5666 12.7717C25.6802 12.8942 25.8184 12.991 25.9723 13.0559L44.8792 21.0455C45.025 21.1071 45.1816 21.1386 45.3398 21.1383C45.4979 21.1379 45.6544 21.1056 45.7998 21.0433L64.454 13.0535C64.607 12.9881 64.7445 12.891 64.8573 12.7685C64.9701 12.646 65.0557 12.5009 65.1084 12.3428C65.1611 12.1847 65.1797 12.0173 65.163 11.8514C65.1464 11.6856 65.0948 11.5252 65.0117 11.3809C64.8851 11.6024 64.6891 11.7758 64.454 11.8742Z" fill="black"/>
<path d="M34.3276 26.023C34.4056 26.023 34.4805 25.992 34.5357 25.9367C34.5909 25.8814 34.6219 25.8064 34.6219 25.7282V15.8626L44.3301 12.3201C44.4082 12.3213 44.4835 12.2914 44.5395 12.2369C44.5955 12.1824 44.6277 12.1079 44.6288 12.0297C44.63 11.9515 44.6001 11.876 44.5457 11.8199C44.4913 11.7638 44.4169 11.7316 44.3389 11.7305L34.6307 15.2729C34.5526 15.2711 34.4749 15.2852 34.4024 15.3144C34.3298 15.3435 34.264 15.3871 34.2088 15.4425C34.153 15.4973 34.1087 15.5626 34.0785 15.6348C34.0484 15.7069 34.033 15.7844 34.0332 15.8626V25.7282C34.0332 25.8064 34.0642 25.8814 34.1194 25.9367C34.1746 25.992 34.2495 26.023 34.3276 26.023Z" fill="#3F3D56"/>
<path d="M93.3504 15.0205C92.6119 13.7226 91.6736 11.1359 90.1831 10.6562C89.3554 10.4005 88.4999 10.2308 87.6322 10.15L85.0988 11.0577L86.4776 10.0587C86.2092 10.0438 85.9409 10.0316 85.6727 10.0222L83.9634 10.6346L84.8379 10.001C83.2443 9.98574 81.5994 10.1401 80.3646 11.0438C79.3119 11.8142 78.269 14.7327 78.1003 15.9697C77.9201 17.1532 77.9831 18.3578 78.2863 19.5192L78.7191 19.9027C78.8706 19.5792 78.9844 19.2416 79.0588 18.8956C79.214 18.2491 79.512 17.6398 79.934 17.1066C80.3559 16.5733 80.8925 16.1278 81.5095 15.7984L81.5331 15.786C82.2591 15.4054 83.1401 15.4229 83.9727 15.4509L87.9269 15.5834C88.8783 15.6153 89.9027 15.6714 90.6444 16.2273C91.1158 16.6374 91.4864 17.1375 91.7309 17.6935C92.0995 18.3865 92.8196 21 92.8196 21C92.8196 21 93.2271 20.5067 93.4224 20.8738C93.7356 19.9158 93.926 18.9266 93.9897 17.9269C94.052 16.9228 93.8316 15.9209 93.3504 15.0205Z" fill="#2F2E41"/>
</svg>
