<svg width="28" height="31" viewBox="0 0 28 31" fill="none" xmlns="http://www.w3.org/2000/svg">
<path d="M0.171875 23.3896C0.171875 23.9268 0.367188 24.3564 0.757812 24.6787C1.14844 25.001 1.69043 25.1621 2.38379 25.1621H8.56543C8.60449 26.1094 8.8584 26.9834 9.32715 27.7842C9.80566 28.585 10.4453 29.2295 11.2461 29.7178C12.0469 30.2158 12.96 30.4648 13.9854 30.4648C15.0205 30.4648 15.9385 30.2158 16.7393 29.7178C17.54 29.2295 18.1748 28.585 18.6436 27.7842C19.1221 26.9834 19.3809 26.1094 19.4199 25.1621H25.6016C26.2949 25.1621 26.8369 25.001 27.2275 24.6787C27.6182 24.3564 27.8135 23.9268 27.8135 23.3896C27.8135 22.9014 27.6719 22.4277 27.3887 21.9688C27.1055 21.5098 26.749 21.0605 26.3193 20.6211C25.8994 20.1816 25.4795 19.7422 25.0596 19.3027C24.7373 18.9707 24.4834 18.5361 24.2979 17.999C24.1221 17.4619 23.9902 16.8906 23.9023 16.2852C23.8145 15.6797 23.751 15.0938 23.7119 14.5273C23.7021 14.0488 23.6826 13.585 23.6533 13.1357C23.624 12.6768 23.585 12.2324 23.5361 11.8027C23.1943 11.9102 22.8086 11.998 22.3789 12.0664C21.959 12.125 21.5732 12.1445 21.2217 12.125C21.2607 12.5059 21.2949 12.9111 21.3242 13.3408C21.3535 13.7705 21.373 14.2295 21.3828 14.7178C21.4121 15.4307 21.4658 16.085 21.5439 16.6807C21.6318 17.2764 21.7393 17.8184 21.8662 18.3066C22.0029 18.7949 22.1689 19.2344 22.3643 19.625C22.5596 20.0059 22.7891 20.3428 23.0527 20.6357C23.3164 20.9189 23.5752 21.1973 23.8291 21.4707C24.0928 21.7441 24.3223 21.998 24.5176 22.2324C24.7227 22.457 24.8691 22.6377 24.957 22.7744V22.9502H3.01367V22.7744C3.10156 22.6377 3.24805 22.457 3.45312 22.2324C3.6582 21.998 3.8877 21.7441 4.1416 21.4707C4.40527 21.1973 4.66406 20.9189 4.91797 20.6357C5.18164 20.3428 5.41113 20.0059 5.60645 19.625C5.80176 19.2344 5.96777 18.7949 6.10449 18.3066C6.24121 17.8184 6.34863 17.2764 6.42676 16.6807C6.50488 16.085 6.56348 15.4307 6.60254 14.7178C6.6416 12.5889 6.86133 10.8994 7.26172 9.64941C7.66211 8.39941 8.19434 7.47168 8.8584 6.86621C9.53223 6.25098 10.2891 5.82617 11.1289 5.5918C11.3145 5.55273 11.4561 5.48438 11.5537 5.38672C11.6514 5.2793 11.7051 5.13281 11.7148 4.94727C11.7441 4.18555 11.959 3.56543 12.3594 3.08691C12.7695 2.59863 13.3115 2.35449 13.9854 2.35449C14.2686 2.35449 14.5078 2.39355 14.7031 2.47168C14.8398 2.12988 15.001 1.80273 15.1865 1.49023C15.3721 1.17773 15.582 0.884766 15.8164 0.611328C15.25 0.337891 14.6396 0.201172 13.9854 0.201172C12.9111 0.201172 11.998 0.533203 11.2461 1.19727C10.5039 1.86133 10.0107 2.67188 9.7666 3.62891C8.46777 4.09766 7.41797 4.82031 6.61719 5.79688C5.82617 6.77344 5.24512 7.99414 4.87402 9.45898C4.50293 10.9141 4.30273 12.6035 4.27344 14.5273C4.23438 15.0938 4.1709 15.6797 4.08301 16.2852C3.99512 16.8906 3.8584 17.4619 3.67285 17.999C3.49707 18.5361 3.24805 18.9707 2.92578 19.3027C2.50586 19.7422 2.08105 20.1816 1.65137 20.6211C1.23145 21.0605 0.879883 21.5098 0.59668 21.9688C0.313477 22.4277 0.171875 22.9014 0.171875 23.3896ZM10.8506 25.1621H17.1348C17.0762 26.1582 16.7588 26.9443 16.1826 27.5205C15.6064 28.1064 14.874 28.3994 13.9854 28.3994C13.1064 28.3994 12.374 28.1064 11.7881 27.5205C11.2119 26.9443 10.8994 26.1582 10.8506 25.1621ZM21.207 10.2646C22.125 10.2646 22.9697 10.0352 23.7412 9.57617C24.5127 9.11719 25.1279 8.50195 25.5869 7.73047C26.0459 6.95898 26.2754 6.10937 26.2754 5.18164C26.2754 4.25391 26.0459 3.4043 25.5869 2.63281C25.1279 1.86133 24.5127 1.24609 23.7412 0.787109C22.9697 0.328125 22.125 0.0986328 21.207 0.0986328C20.2695 0.0986328 19.415 0.328125 18.6436 0.787109C17.8818 1.24609 17.2715 1.86133 16.8125 2.63281C16.3535 3.4043 16.124 4.25391 16.124 5.18164C16.124 6.10937 16.3535 6.95898 16.8125 7.73047C17.2715 8.50195 17.8818 9.11719 18.6436 9.57617C19.415 10.0352 20.2695 10.2646 21.207 10.2646Z" fill="url(#paint0_linear_1223_1506)"/>
<defs>
<linearGradient id="paint0_linear_1223_1506" x1="-3" y1="-2.21718" x2="37.946" y2="19.4225" gradientUnits="userSpaceOnUse">
<stop stop-color="#8D8D8D"/>
<stop offset="1" stop-color="#3F3F3F"/>
</linearGradient>
</defs>
</svg>
