<svg width="111" height="111" viewBox="0 0 111 111" fill="none" xmlns="http://www.w3.org/2000/svg">
<rect y="76.1807" width="42.9797" height="8.02288" rx="4.01144" transform="rotate(-45 0 76.1807)" fill="#3883EC"/>
<rect x="32.8223" y="63.6187" width="42.9797" height="8.02288" rx="4.01144" transform="rotate(-45 32.8223 63.6187)" fill="#3883EC"/>
<rect x="69.6973" y="75.3701" width="34.3838" height="8.02288" rx="4.01144" transform="rotate(-135 69.6973 75.3701)" fill="#3883EC"/>
<rect x="20.666" y="96.8467" width="42.9797" height="8.02288" rx="4.01144" transform="rotate(-45 20.666 96.8467)" fill="#3883EC"/>
<rect x="26.3394" y="102.52" width="37.2491" height="8.02288" rx="4.01144" transform="rotate(-135 26.3394 102.52)" fill="#3883EC"/>
<rect x="45.7896" y="30.3911" width="42.9797" height="8.02288" rx="4.01144" transform="rotate(-45 45.7896 30.3911)" fill="#FFCF46"/>
<rect x="66.4556" y="51.0571" width="42.9797" height="8.02288" rx="4.01144" transform="rotate(-45 66.4556 51.0571)" fill="#FFCF46"/>
<rect x="96.8467" y="32.0117" width="37.2491" height="8.02288" rx="4.01144" transform="rotate(-135 96.8467 32.0117)" fill="#FFCF46"/>
</svg>
