<svg width="37" height="37" viewBox="0 0 37 37" fill="none" xmlns="http://www.w3.org/2000/svg">
<path d="M18.0762 36.2559C20.5254 36.2559 22.8281 35.7871 24.9844 34.8496C27.1523 33.9121 29.0625 32.6172 30.7148 30.9648C32.3672 29.3125 33.6621 27.4082 34.5996 25.252C35.5371 23.084 36.0059 20.7754 36.0059 18.3262C36.0059 15.877 35.5371 13.5742 34.5996 11.418C33.6621 9.25 32.3672 7.33984 30.7148 5.6875C29.0625 4.03516 27.1523 2.74023 24.9844 1.80273C22.8164 0.865234 20.5078 0.396484 18.0586 0.396484C15.6094 0.396484 13.3008 0.865234 11.1328 1.80273C8.97656 2.74023 7.07227 4.03516 5.41992 5.6875C3.7793 7.33984 2.49023 9.25 1.55273 11.418C0.615234 13.5742 0.146484 15.877 0.146484 18.3262C0.146484 20.7754 0.615234 23.084 1.55273 25.252C2.49023 27.4082 3.78516 29.3125 5.4375 30.9648C7.08984 32.6172 8.99414 33.9121 11.1504 34.8496C13.3184 35.7871 15.627 36.2559 18.0762 36.2559ZM9.79688 27.5371C9.43359 27.5371 9.16406 27.4316 8.98828 27.2207C8.8125 26.998 8.72461 26.7227 8.72461 26.3945C8.72461 25.9023 8.91211 25.2637 9.28711 24.4785C9.67383 23.6816 10.248 22.8848 11.0098 22.0879C11.7832 21.291 12.7559 20.623 13.9277 20.084C15.0996 19.5449 16.4824 19.2754 18.0762 19.2754C19.6699 19.2754 21.0527 19.5449 22.2246 20.084C23.3965 20.623 24.3633 21.291 25.125 22.0879C25.8984 22.8848 26.4727 23.6816 26.8477 24.4785C27.2344 25.2637 27.4277 25.9023 27.4277 26.3945C27.4277 26.7227 27.3398 26.998 27.1641 27.2207C26.9883 27.4316 26.7188 27.5371 26.3555 27.5371H9.79688ZM18.0762 17.7812C17.2207 17.7812 16.4414 17.5586 15.7383 17.1133C15.0352 16.668 14.4727 16.0645 14.0508 15.3027C13.6289 14.5293 13.418 13.6621 13.418 12.7012C13.418 11.7988 13.6289 10.9727 14.0508 10.2227C14.4727 9.46094 15.0352 8.85742 15.7383 8.41211C16.4414 7.95508 17.2207 7.72656 18.0762 7.72656C18.9316 7.72656 19.7109 7.95508 20.4141 8.41211C21.1172 8.85742 21.6797 9.46094 22.1016 10.2227C22.5234 10.9727 22.7344 11.7988 22.7344 12.7012C22.7344 13.6621 22.5234 14.5293 22.1016 15.3027C21.6797 16.0762 21.1172 16.6855 20.4141 17.1309C19.7109 17.5762 18.9316 17.793 18.0762 17.7812Z" fill="black"/>
</svg>
