<svg width="30" height="31" viewBox="0 0 30 31" fill="none" xmlns="http://www.w3.org/2000/svg">
<path d="M15 30.2891C17.041 30.2891 18.96 29.8984 20.7568 29.1172C22.5635 28.3359 24.1553 27.2568 25.5322 25.8799C26.9092 24.5029 27.9883 22.916 28.7695 21.1191C29.5508 19.3125 29.9414 17.3887 29.9414 15.3477C29.9414 13.3066 29.5508 11.3877 28.7695 9.59082C27.9883 7.78418 26.9092 6.19238 25.5322 4.81543C24.1553 3.43848 22.5635 2.35937 20.7568 1.57812C18.9502 0.796875 17.0264 0.40625 14.9854 0.40625C12.9443 0.40625 11.0205 0.796875 9.21387 1.57812C7.41699 2.35937 5.83008 3.43848 4.45312 4.81543C3.08594 6.19238 2.01172 7.78418 1.23047 9.59082C0.449219 11.3877 0.0585938 13.3066 0.0585938 15.3477C0.0585938 17.3887 0.449219 19.3125 1.23047 21.1191C2.01172 22.916 3.09082 24.5029 4.46777 25.8799C5.84473 27.2568 7.43164 28.3359 9.22852 29.1172C11.0352 29.8984 12.959 30.2891 15 30.2891ZM8.10059 23.0234C7.79785 23.0234 7.57324 22.9355 7.42676 22.7598C7.28027 22.5742 7.20703 22.3447 7.20703 22.0713C7.20703 21.6611 7.36328 21.1289 7.67578 20.4746C7.99805 19.8105 8.47656 19.1465 9.11133 18.4824C9.75586 17.8184 10.5664 17.2617 11.543 16.8125C12.5195 16.3633 13.6719 16.1387 15 16.1387C16.3281 16.1387 17.4805 16.3633 18.457 16.8125C19.4336 17.2617 20.2393 17.8184 20.874 18.4824C21.5186 19.1465 21.9971 19.8105 22.3096 20.4746C22.6318 21.1289 22.793 21.6611 22.793 22.0713C22.793 22.3447 22.7197 22.5742 22.5732 22.7598C22.4268 22.9355 22.2021 23.0234 21.8994 23.0234H8.10059ZM15 14.8936C14.2871 14.8936 13.6377 14.708 13.0518 14.3369C12.4658 13.9658 11.9971 13.4629 11.6455 12.8281C11.2939 12.1836 11.1182 11.4609 11.1182 10.6602C11.1182 9.9082 11.2939 9.21973 11.6455 8.59473C11.9971 7.95996 12.4658 7.45703 13.0518 7.08594C13.6377 6.70508 14.2871 6.51465 15 6.51465C15.7129 6.51465 16.3623 6.70508 16.9482 7.08594C17.5342 7.45703 18.0029 7.95996 18.3545 8.59473C18.7061 9.21973 18.8818 9.9082 18.8818 10.6602C18.8818 11.4609 18.7061 12.1836 18.3545 12.8281C18.0029 13.4727 17.5342 13.9805 16.9482 14.3516C16.3623 14.7227 15.7129 14.9033 15 14.8936Z" fill="url(#paint0_linear_1361_1167)"/>
<defs>
<linearGradient id="paint0_linear_1361_1167" x1="-3" y1="-2.09082" x2="37.8712" y2="25.7609" gradientUnits="userSpaceOnUse">
<stop stop-color="white"/>
<stop offset="1" stop-color="#ECECEC"/>
</linearGradient>
</defs>
</svg>
