<svg width="28" height="32" viewBox="0 0 28 32" fill="none" xmlns="http://www.w3.org/2000/svg">
<path d="M2.38379 25.8838H25.6016C26.2949 25.8838 26.8369 25.7227 27.2275 25.4004C27.6182 25.0781 27.8135 24.6484 27.8135 24.1113C27.8135 23.623 27.6719 23.1494 27.3887 22.6904C27.1055 22.2314 26.749 21.7822 26.3193 21.3428C25.8994 20.9033 25.4795 20.4639 25.0596 20.0244C24.7373 19.6924 24.4834 19.2578 24.2979 18.7207C24.1221 18.1836 23.9902 17.6123 23.9023 17.0068C23.8145 16.4014 23.751 15.8154 23.7119 15.249C23.7021 14.7705 23.6826 14.3066 23.6533 13.8574C23.6338 13.3984 23.5996 12.9541 23.5508 12.5244C23.1797 12.6709 22.7988 12.7832 22.4082 12.8613C22.0176 12.9395 21.6123 12.9785 21.1924 12.9785C19.8936 12.9785 18.707 12.6611 17.6328 12.0264C16.5684 11.3818 15.7139 10.5225 15.0693 9.44824C14.4346 8.37402 14.1172 7.19238 14.1172 5.90332C14.1172 5.03418 14.2686 4.20898 14.5713 3.42773C14.874 2.64648 15.2842 1.94824 15.8018 1.33301C15.2549 1.05957 14.6494 0.922852 13.9854 0.922852C12.9111 0.922852 12.0078 1.25488 11.2754 1.91895C10.543 2.58301 10.04 3.39355 9.7666 4.35059C8.46777 4.81934 7.41797 5.55176 6.61719 6.54785C5.82617 7.54395 5.24512 8.77441 4.87402 10.2393C4.50293 11.7041 4.30273 13.374 4.27344 15.249C4.23438 15.8154 4.1709 16.4014 4.08301 17.0068C3.99512 17.6123 3.8584 18.1836 3.67285 18.7207C3.49707 19.2578 3.24805 19.6924 2.92578 20.0244C2.50586 20.4639 2.08105 20.9033 1.65137 21.3428C1.23145 21.7822 0.879883 22.2314 0.59668 22.6904C0.313477 23.1494 0.171875 23.623 0.171875 24.1113C0.171875 24.6484 0.367188 25.0781 0.757812 25.4004C1.14844 25.7227 1.69043 25.8838 2.38379 25.8838ZM13.9854 31.7578C14.8154 31.7578 15.5576 31.5771 16.2119 31.2158C16.8662 30.8545 17.3887 30.3809 17.7793 29.7949C18.1797 29.209 18.4141 28.5742 18.4824 27.8906H9.50293C9.56152 28.5742 9.79102 29.209 10.1914 29.7949C10.5918 30.3809 11.1191 30.8545 11.7734 31.2158C12.4277 31.5771 13.165 31.7578 13.9854 31.7578ZM21.207 10.9863C22.125 10.9863 22.9697 10.7568 23.7412 10.2979C24.5127 9.83887 25.1279 9.22363 25.5869 8.45215C26.0459 7.68066 26.2754 6.83105 26.2754 5.90332C26.2754 4.97559 26.0459 4.12598 25.5869 3.35449C25.1279 2.58301 24.5127 1.96777 23.7412 1.50879C22.9697 1.0498 22.125 0.820312 21.207 0.820312C20.2695 0.820312 19.415 1.0498 18.6436 1.50879C17.8818 1.96777 17.2715 2.58301 16.8125 3.35449C16.3535 4.12598 16.124 4.97559 16.124 5.90332C16.124 6.83105 16.3535 7.68066 16.8125 8.45215C17.2715 9.22363 17.8818 9.83887 18.6436 10.2979C19.415 10.7568 20.2695 10.9863 21.207 10.9863Z" fill="url(#paint0_linear_1223_1497)"/>
<defs>
<linearGradient id="paint0_linear_1223_1497" x1="-3" y1="-1.09082" x2="36.9698" y2="24.6334" gradientUnits="userSpaceOnUse">
<stop stop-color="white"/>
<stop offset="1" stop-color="#ECECEC"/>
</linearGradient>
</defs>
</svg>
