<svg width="48" height="48" viewBox="0 0 48 48" fill="none" xmlns="http://www.w3.org/2000/svg">
<path d="M36.6433 23.3156C36.4872 23.3233 36.3401 23.3907 36.2323 23.5039C36.1246 23.6171 36.0645 23.7674 36.0645 23.9237C36.0645 24.08 36.1246 24.2303 36.2323 24.3435C36.3401 24.4567 36.4872 24.5241 36.6433 24.5318C36.7994 24.5241 36.9466 24.4567 37.0543 24.3435C37.1621 24.2303 37.2222 24.08 37.2222 23.9237C37.2222 23.7674 37.1621 23.6171 37.0543 23.5039C36.9466 23.3907 36.7994 23.3233 36.6433 23.3156V23.3156ZM36.6433 24.437C36.5119 24.43 36.3883 24.3728 36.2978 24.2773C36.2073 24.1818 36.1568 24.0553 36.1568 23.9237C36.1568 23.7921 36.2073 23.6656 36.2978 23.5701C36.3883 23.4746 36.5119 23.4174 36.6433 23.4104V23.4104C36.7091 23.4121 36.774 23.4268 36.8341 23.4537C36.8942 23.4806 36.9484 23.5191 36.9936 23.567C37.0387 23.6149 37.074 23.6713 37.0973 23.7329C37.1205 23.7945 37.1314 23.8601 37.1292 23.9259C37.1326 23.9922 37.1226 24.0584 37.0998 24.1207C37.077 24.183 37.0419 24.2401 36.9965 24.2885C36.9512 24.3369 36.8965 24.3757 36.8358 24.4025C36.7751 24.4293 36.7097 24.4435 36.6433 24.4444V24.437Z" fill="white"/>
<path d="M36.7508 23.9437C36.7882 23.9353 36.8216 23.9144 36.8455 23.8846C36.8695 23.8547 36.8826 23.8175 36.8826 23.7792C36.8849 23.7524 36.8804 23.7255 36.8696 23.7009C36.8587 23.6763 36.8418 23.6548 36.8204 23.6385C36.7578 23.6003 36.6847 23.5827 36.6115 23.5881C36.547 23.588 36.4826 23.5935 36.4189 23.6044V24.28H36.5271V23.9837H36.6026C36.6203 23.9805 36.6385 23.9811 36.6559 23.9855C36.6733 23.99 36.6896 23.9981 36.7037 24.0093C36.7177 24.0205 36.7292 24.0346 36.7373 24.0506C36.7454 24.0667 36.75 24.0842 36.7508 24.1022C36.7553 24.1618 36.7709 24.2201 36.7967 24.2741H36.9108C36.8865 24.2213 36.872 24.1646 36.8678 24.1066C36.8501 24.0089 36.8101 23.9555 36.7508 23.9437ZM36.6026 23.9007H36.5241V23.6726C36.5503 23.6704 36.5765 23.6704 36.6026 23.6726C36.7241 23.6726 36.7671 23.7318 36.7671 23.7911C36.7701 23.8681 36.6945 23.9007 36.6056 23.9007H36.6026Z" fill="white"/>
<path d="M19.4157 19.0022V25.9906H23.1642L23.5552 23.8945H25.2427C24.6248 27.0915 21.4454 29.303 17.4213 29.303C17.1456 29.303 16.866 29.2913 16.5883 29.2697C14.3572 29.0977 12.3061 28.3801 10.8102 27.246C9.16186 25.9965 8.29368 24.3247 8.30346 22.4143C8.30718 21.3975 8.52823 20.3932 8.9518 19.4689C9.37537 18.5445 9.99168 17.7214 10.7594 17.0546C12.3405 15.689 14.3418 14.9064 16.4299 14.8373C16.5648 14.8373 16.7017 14.8373 16.8366 14.8373C19.477 14.8809 22.0257 15.8129 24.0714 17.4829C24.1196 17.5258 24.1698 17.5662 24.222 17.6041C24.2718 17.6398 24.3194 17.6783 24.3647 17.7195L24.4234 17.7684H28.7252V10.2402H24.3628V12.3911C22.5267 11.2179 19.3845 10.0291 15.7182 10.0291H15.6575C11.6525 10.0494 7.81934 11.6593 5.00086 14.5049C2.72874 16.818 1.49882 19.6416 1.53597 22.4592C1.57508 25.49 3.03378 28.3136 5.64222 30.4078C8.14116 32.4139 11.5278 33.5637 14.9341 33.5637C15.3545 33.5637 15.7807 33.5461 16.2011 33.5129C19.5741 33.2391 22.5639 32.4687 24.6757 31.3366V32.2693H29.3079V23.8984H30.9074V33.6067H28.4925V37.9711H39.2665V33.6067H36.8517V23.8945H42.3071L42.6982 25.9906H46.4642V19.0022H19.4157Z" fill="white"/>
</svg>
