<svg width="267" height="164" viewBox="0 0 267 164" fill="none" xmlns="http://www.w3.org/2000/svg">
<path d="M266.239 129.008H0.696961C0.512116 129.008 0.334851 128.935 0.204145 128.804C0.0734397 128.673 0 128.496 0 128.311C0 128.126 0.0734397 127.948 0.204145 127.818C0.334851 127.687 0.512116 127.613 0.696961 127.613H266.239C266.424 127.613 266.601 127.687 266.732 127.818C266.863 127.948 266.936 128.126 266.936 128.311C266.936 128.496 266.863 128.673 266.732 128.804C266.601 128.935 266.424 129.008 266.239 129.008Z" fill="#3F3D56"/>
<path d="M138.736 37.6564C149.129 37.6564 157.554 29.2267 157.554 18.8282C157.554 8.42966 149.129 0 138.736 0C128.343 0 119.918 8.42966 119.918 18.8282C119.918 29.2267 128.343 37.6564 138.736 37.6564Z" fill="#2F2E41"/>
<path d="M120.856 139.696L120.357 131.161L153.021 125.175L153.757 137.772L120.856 139.696Z" fill="#FFB8B8"/>
<path d="M122.439 124.922L123.401 141.382L113.043 141.988L111.476 115.164C112.836 115.085 114.199 115.274 115.486 115.721C116.773 116.169 117.96 116.865 118.978 117.771C119.996 118.678 120.825 119.775 121.419 121.002C122.013 122.229 122.36 123.561 122.439 124.922Z" fill="#2F2E41"/>
<path d="M135.063 139.617L129.637 146.222L101.594 128.426L109.601 118.679L135.063 139.617Z" fill="#FFB8B8"/>
<path d="M123.875 149.388L134.339 136.651L142.354 143.243L125.303 164C124.25 163.134 123.378 162.07 122.737 160.867C122.095 159.664 121.697 158.347 121.564 156.99C121.432 155.633 121.568 154.263 121.964 152.959C122.361 151.655 123.01 150.442 123.875 149.388Z" fill="#2F2E41"/>
<path d="M119.45 108.903L115.742 126.392C115.657 126.795 115.662 127.211 115.756 127.612C115.851 128.012 116.033 128.387 116.289 128.709C116.546 129.031 116.87 129.292 117.239 129.474C117.608 129.655 118.013 129.753 118.425 129.76L154.874 130.348C155.285 130.355 155.692 130.27 156.067 130.101C156.441 129.932 156.774 129.682 157.04 129.369C157.307 129.056 157.501 128.688 157.609 128.291C157.717 127.895 157.736 127.479 157.664 127.074L154.476 108.997C154.362 108.352 154.025 107.767 153.523 107.345C153.021 106.924 152.386 106.693 151.731 106.693H122.177C121.538 106.693 120.919 106.912 120.422 107.315C119.926 107.717 119.583 108.278 119.45 108.903Z" fill="#2F2E41"/>
<path d="M125.493 115.061C125.493 115.061 89.9484 92.7461 82.9788 104.601C79.494 110.528 81.2364 116.281 83.85 120.553C86.2755 124.441 89.7571 127.559 93.888 129.542L122.706 143.652L133.16 132.494L126.19 126.218L125.493 115.061Z" fill="#2F2E41"/>
<path d="M143.615 111.574C143.615 111.574 189.614 98.3249 180.554 123.429C171.493 148.533 137.342 138.771 137.342 138.771L133.857 128.311L145.706 119.942L143.615 111.574Z" fill="#2F2E41"/>
<path d="M138.972 40.2548C148.426 40.2548 156.09 32.5866 156.09 23.1274C156.09 13.6682 148.426 6 138.972 6C129.518 6 121.854 13.6682 121.854 23.1274C121.854 32.5866 129.518 40.2548 138.972 40.2548Z" fill="#FFB8B8"/>
<path d="M139.869 114.342C132.756 114.234 125.68 113.301 118.781 111.562L118.578 111.506L109.025 67.5426C108.166 63.6794 108.75 59.635 110.668 56.1734C112.585 52.7117 115.703 50.0724 119.433 48.7539C130.954 44.6181 143.51 44.3673 155.187 48.0395H155.187C159.105 49.3028 162.403 51.9977 164.423 55.5864C166.442 59.1751 167.036 63.3939 166.084 67.401L155.415 111.47L155.264 111.541C150.83 113.643 145.286 114.342 139.869 114.342Z" fill="#CCCCCC"/>
<path d="M127.037 117.757C127.384 116.792 127.938 115.916 128.66 115.188C129.383 114.461 130.255 113.901 131.217 113.548C132.179 113.195 133.207 113.057 134.228 113.144C135.248 113.231 136.238 113.542 137.126 114.053L155.935 97.7178L157.636 110.555L139.514 124.099C138.557 125.535 137.107 126.569 135.438 127.007C133.77 127.445 131.999 127.254 130.461 126.473C128.923 125.691 127.725 124.372 127.094 122.766C126.463 121.159 126.443 119.377 127.037 117.757Z" fill="#FFB8B8"/>
<path d="M144.977 121.32C144.671 121.32 144.367 121.275 144.073 121.187C143.598 121.049 143.162 120.798 142.803 120.456C142.443 120.115 142.171 119.692 142.009 119.223L139.739 112.788C139.526 112.193 139.499 111.548 139.661 110.937C139.823 110.327 140.167 109.78 140.646 109.369L166.273 93.9759L156.171 48.8851L156.428 48.8232C156.532 48.7973 166.882 46.4404 171.124 57.7565C174.094 65.6819 185.085 82.9145 184.309 94.5595C184.162 96.8889 183.234 99.1006 181.676 100.837C180.118 102.574 178.02 103.735 175.721 104.132L146.875 120.668C146.332 121.09 145.664 121.319 144.977 121.32Z" fill="#CCCCCC"/>
<path d="M147.851 116.227C147.504 115.263 146.95 114.386 146.228 113.659C145.506 112.932 144.633 112.372 143.671 112.018C142.709 111.665 141.682 111.527 140.661 111.615C139.64 111.702 138.65 112.012 137.762 112.523L118.954 96.188L117.252 109.025L135.374 122.569C136.331 124.005 137.781 125.04 139.45 125.477C141.118 125.915 142.89 125.725 144.428 124.943C145.966 124.161 147.163 122.842 147.794 121.236C148.425 119.63 148.446 117.847 147.851 116.227Z" fill="#FFB8B8"/>
<path d="M131.8 121.32C131.113 121.319 130.445 121.09 129.902 120.669L98.9648 105.527C96.6661 105.13 94.5683 103.969 93.01 102.232C91.4518 100.496 90.5242 98.2838 90.3768 95.9545C89.6014 84.3095 102.683 65.6822 105.653 57.7568C109.895 46.4407 120.245 48.7969 120.349 48.8235L120.606 48.8854L108.414 95.3709L136.131 109.369C136.61 109.78 136.954 110.327 137.116 110.938C137.278 111.548 137.251 112.193 137.039 112.788L134.768 119.223C134.606 119.692 134.334 120.115 133.974 120.457C133.615 120.798 133.179 121.049 132.704 121.187C132.41 121.275 132.106 121.32 131.8 121.32Z" fill="#CCCCCC"/>
<path d="M168.705 128.31H106.676C105.382 128.309 104.142 127.794 103.227 126.879C102.313 125.964 101.798 124.723 101.797 123.429V89.2593C101.798 87.9652 102.313 86.7244 103.227 85.8093C104.142 84.8942 105.382 84.3794 106.676 84.3779H168.705C169.999 84.3794 171.239 84.8942 172.153 85.8093C173.068 86.7245 173.582 87.9651 173.584 89.2593V123.429C173.582 124.723 173.068 125.964 172.153 126.879C171.239 127.794 169.999 128.309 168.705 128.31Z" fill="#265791"/>
<path d="M137.692 110.528C140.001 110.528 141.873 108.655 141.873 106.344C141.873 104.033 140.001 102.16 137.692 102.16C135.382 102.16 133.51 104.033 133.51 106.344C133.51 108.655 135.382 110.528 137.692 110.528Z" fill="white"/>
<path d="M121.683 22.4305C120.669 19.8557 122.333 16.7873 124.803 15.5401C127.272 14.2928 130.252 14.53 132.893 15.3521C135.113 16.0429 137.193 17.1135 139.359 17.959C141.494 18.9056 143.826 19.3212 146.156 19.1702C148.466 18.9092 150.765 17.6132 151.71 15.4883C152.69 13.2857 152.024 10.5977 150.515 8.71797C148.909 6.90068 146.832 5.56458 144.513 4.85832C139.42 3.06307 133.537 3.01059 128.809 5.62016C124.08 8.22974 120.867 13.7862 121.844 19.0998" fill="#2F2E41"/>
<path d="M22.7652 120.862C23.6263 111.584 26.0045 102.51 29.8049 94.0025C30.8641 91.6351 32.0299 89.3197 33.3023 87.0565C33.3661 86.9381 33.3815 86.7996 33.3452 86.6701C33.3089 86.5406 33.2237 86.4303 33.1077 86.3624C32.9916 86.2946 32.8538 86.2744 32.7232 86.3063C32.5926 86.3382 32.4795 86.4196 32.4077 86.5333C27.7804 94.7765 24.5387 103.725 22.8121 113.02C22.3318 115.616 21.9709 118.23 21.7292 120.862C21.6678 121.526 22.7042 121.522 22.7652 120.862Z" fill="#E6E6E6"/>
<path d="M35.8115 88.7184C39.4353 88.7184 42.3729 85.7792 42.3729 82.1534C42.3729 78.5276 39.4353 75.5884 35.8115 75.5884C32.1877 75.5884 29.25 78.5276 29.25 82.1534C29.25 85.7792 32.1877 88.7184 35.8115 88.7184Z" fill="#F1B814"/>
<path d="M23.4355 121.036C23.9941 115.017 25.537 109.13 28.0025 103.611C28.6896 102.075 29.4459 100.573 30.2714 99.1051C30.3128 99.0283 30.3228 98.9384 30.2992 98.8544C30.2757 98.7704 30.2204 98.6989 30.1451 98.6549C30.0699 98.6108 29.9804 98.5978 29.8957 98.6185C29.811 98.6391 29.7377 98.6919 29.6911 98.7657C26.6891 104.113 24.5861 109.919 23.466 115.949C23.1544 117.633 22.9202 119.329 22.7634 121.036C22.7236 121.467 23.396 121.464 23.4355 121.036H23.4355Z" fill="#E6E6E6"/>
<path d="M31.8993 100.184C34.2502 100.184 36.156 98.2768 36.156 95.9246C36.156 93.5724 34.2502 91.6655 31.8993 91.6655C29.5484 91.6655 27.6426 93.5724 27.6426 95.9246C27.6426 98.2768 29.5484 100.184 31.8993 100.184Z" fill="#F1B814"/>
<path d="M22.5878 120.634C19.328 115.544 16.9258 109.953 15.4771 104.084C15.0748 102.45 14.7477 100.801 14.496 99.1349C14.4815 99.0489 14.4341 98.9718 14.3639 98.9201C14.2937 98.8683 14.2061 98.8459 14.1197 98.8575C14.0332 98.8691 13.9547 98.9139 13.9006 98.9823C13.8465 99.0508 13.8211 99.1376 13.8298 99.2244C14.7502 105.288 16.6605 111.16 19.4843 116.604C20.2738 118.123 21.1317 119.605 22.0578 121.048C22.2912 121.412 22.8197 120.996 22.5878 120.634Z" fill="#E6E6E6"/>
<path d="M13.8231 99.8843C16.1741 99.8843 18.0799 97.9775 18.0799 95.6252C18.0799 93.273 16.1741 91.3662 13.8231 91.3662C11.4722 91.3662 9.56641 93.273 9.56641 95.6252C9.56641 97.9775 11.4722 99.8843 13.8231 99.8843Z" fill="#F1B814"/>
<path d="M9.51953 124.403V116.035C9.52047 115.203 9.85121 114.405 10.4392 113.817C11.0272 113.228 11.8243 112.897 12.6559 112.896H32.1708C33.0023 112.897 33.7995 113.228 34.3874 113.817C34.9754 114.405 35.3062 115.203 35.3071 116.035V124.403C35.3062 125.235 34.9754 126.032 34.3874 126.62C33.7995 127.209 33.0023 127.54 32.1708 127.541H12.6559C11.8243 127.54 11.0272 127.209 10.4392 126.62C9.85121 126.032 9.52047 125.235 9.51953 124.403Z" fill="#CCCCCC"/>
</svg>
