<svg width="173" height="153" viewBox="0 0 173 153" fill="none" xmlns="http://www.w3.org/2000/svg">
<g clip-path="url(#clip0_724_932)">
<path d="M25.1478 122.869L19.8884 119.536C19.6468 116.611 19.5713 113.674 19.6623 110.74L22.3906 111.433L19.6977 109.727C19.8464 106.1 20.1758 103.707 20.1758 103.707C20.1758 103.707 30.8097 110.577 37.5917 119.889L36.4353 127.765L39.1933 122.257C39.8988 123.381 40.5325 124.547 41.0907 125.749C46.6785 137.891 47.2215 149.549 42.3035 151.788C37.3854 154.027 28.8688 145.999 23.281 133.858C21.5488 130.094 20.5926 125.766 20.0971 121.585L25.1478 122.869Z" fill="#F0F0F0"/>
<path d="M14.3455 134.588L8.11125 134.44C6.38397 132.059 4.79305 129.584 3.34606 127.025L6.04186 126.216L2.84995 126.14C1.09229 122.959 0.130859 120.741 0.130859 120.741C0.130859 120.741 12.8043 121.155 23.4495 125.64L26.5525 132.977L26.0512 126.844C27.2388 127.443 28.3874 128.115 29.4902 128.858C40.5835 136.378 47.1069 146.079 44.0605 150.524C41.014 154.969 29.5516 152.476 18.4582 144.955C15.0192 142.623 11.9515 139.41 9.35482 136.086L14.3455 134.588Z" fill="#F0F0F0"/>
<path d="M103.197 42.9471L98.3115 42.3755L96.5873 57.2386L92.185 77.7635C91.5729 78.0599 91.0734 78.5451 90.7608 79.1467C90.4483 79.7483 90.3395 80.4342 90.4505 81.1023C90.5616 81.7704 90.8866 82.385 91.3772 82.8545C91.8677 83.3241 92.4976 83.6235 93.1731 83.7082C93.8486 83.7929 94.5335 83.6584 95.126 83.3247C95.7184 82.991 96.1866 82.4759 96.4609 81.8562C96.7353 81.2364 96.801 80.5451 96.6485 79.8851C96.4959 79.2252 96.1331 78.6319 95.6141 78.1936L100.036 66.0994L103.197 42.9471Z" fill="#FFB6B6"/>
<path d="M110.294 148.908H106.269L104.354 133.466L110.294 133.467L110.294 148.908Z" fill="#FFB6B6"/>
<path d="M111.32 152.789L98.3418 152.788V152.625C98.3419 151.292 98.8741 150.014 99.8215 149.072C100.769 148.13 102.054 147.601 103.393 147.601H103.394L111.321 147.601L111.32 152.789Z" fill="#2F2E41"/>
<path d="M141.185 146.725L137.233 147.483L132.408 132.683L138.241 131.563L141.185 146.725Z" fill="#FFB6B6"/>
<path d="M142.932 150.341L130.189 152.789L130.158 152.629C129.904 151.32 130.183 149.965 130.933 148.861C131.684 147.757 132.845 146.995 134.16 146.743L134.16 146.742L141.943 145.248L142.932 150.341Z" fill="#2F2E41"/>
<path d="M103.983 18.59L106.321 23.0528L123.837 19.2103L121.918 10.5575C120.4 3.70856 114.311 -1.23776 107.425 0.272833C100.539 1.78342 97.3259 8.47764 98.8447 15.3266L101.667 24.0738L104.523 23.4473L103.983 18.59Z" fill="#2F2E41"/>
<path d="M97.736 67.8145C97.736 67.8145 96.0117 76.3893 98.3107 88.9659C100.61 101.542 101.184 106.973 101.184 106.973C101.184 106.973 99.4602 108.974 100.61 110.117C101.759 111.261 100.61 113.547 100.61 113.547L103.196 141.273L112.105 139.844L110.955 113.833C110.955 113.833 112.105 111.546 111.53 110.975C110.955 110.403 112.105 106.973 112.105 106.973L113.542 79.8193L122.45 109.546C122.45 109.546 121.588 110.689 122.45 111.546C123.312 112.404 125.037 116.691 125.037 116.691L130.784 136.699L139.98 134.984L134.807 112.118C134.807 112.118 135.382 110.689 134.52 109.831C134.269 109.569 134.085 109.25 133.985 108.901C133.885 108.553 133.871 108.185 133.945 107.831C133.945 107.831 134.807 106.973 133.658 105.83C132.508 104.686 131.934 100.113 131.934 100.113C131.934 100.113 131.072 69.5294 128.198 67.8145C125.324 66.0995 97.736 67.8145 97.736 67.8145Z" fill="#2F2E41"/>
<path d="M110.73 20.5206C115.174 20.5206 118.777 16.9375 118.777 12.5174C118.777 8.09733 115.174 4.51416 110.73 4.51416C106.286 4.51416 102.684 8.09733 102.684 12.5174C102.684 16.9375 106.286 20.5206 110.73 20.5206Z" fill="#FFB6B6"/>
<path d="M122.071 22.7621C122.071 22.7621 127.911 22.0817 129.636 23.7966L127.911 58.382C127.911 58.382 129.061 59.2395 128.486 61.2403C128.152 62.5535 128.152 63.9287 128.486 65.2419C128.486 65.2419 130.21 67.2427 129.348 68.1002C128.486 68.9577 97.4496 68.3861 97.4496 68.3861C97.4496 68.3861 96.3001 66.3853 98.0243 65.2419C99.7486 64.0986 98.8864 60.9545 98.8864 60.9545C98.8864 60.9545 98.3117 60.097 99.7486 58.6679C101.185 57.2387 102.335 45.5197 102.335 45.5197L98.5991 31.2282C98.5991 31.2282 102.36 27.0063 106.658 26.6877L122.071 22.7621Z" fill="#CCCCCC"/>
<path d="M103.051 31.4252L98.599 31.2285C98.599 31.2285 96.0126 36.3735 95.7253 40.9467L94.1426 58.0074L104.347 59.5257L103.051 31.4252Z" fill="#CCCCCC"/>
<path d="M103.836 12.9144L100.847 9.0895C100.671 8.28419 100.822 7.44222 101.268 6.7476C101.714 6.05298 102.419 5.5622 103.227 5.38251L114.519 2.90536C115.329 2.73006 116.175 2.88065 116.874 3.32423C117.572 3.76781 118.065 4.46831 118.246 5.27267L118.252 5.3003L117.444 9.91908L117.302 9.89382C110.294 8.65113 108.298 9.08824 103.951 12.8166L103.836 12.9144Z" fill="#2F2E41"/>
<path d="M133.911 74.0284L133.372 51.5221L132.797 35.5156L125.9 36.3731L129.604 74.6302C129.21 75.1222 128.974 75.7205 128.925 76.3477C128.876 76.9749 129.018 77.6021 129.332 78.1484C129.645 78.6946 130.117 79.1347 130.684 79.4118C131.252 79.689 131.89 79.7903 132.517 79.7028C133.143 79.6152 133.728 79.3429 134.197 78.9209C134.667 78.4989 134.997 77.9467 135.148 77.3356C135.298 76.7246 135.26 76.0828 135.04 75.4932C134.819 74.9036 134.426 74.3933 133.911 74.0284Z" fill="#FFB6B6"/>
<path d="M124.604 24.2794L129.635 23.7969C129.635 23.7969 130.497 23.7969 131.359 26.6552C132.221 29.5135 136.961 59.7223 136.961 59.7223L126.474 60.6689L124.604 24.2794Z" fill="#CCCCCC"/>
<path d="M93.3452 59.9911H92.6728V41.6692C92.6728 40.2766 92.397 38.8977 91.8612 37.6111C91.3254 36.3245 90.5401 35.1555 89.5501 34.1709C88.5601 33.1862 87.3848 32.4051 86.0912 31.8721C84.7977 31.3392 83.4113 31.0649 82.0112 31.0649H42.9839C41.5838 31.0649 40.1974 31.3392 38.9038 31.8721C37.6103 32.405 36.435 33.1861 35.445 34.1708C34.455 35.1555 33.6696 36.3245 33.1338 37.6111C32.598 38.8976 32.3223 40.2766 32.3223 41.6691V142.185C32.3223 144.997 33.4455 147.694 35.445 149.683C37.4444 151.672 40.1562 152.789 42.9838 152.789H82.0112C84.8388 152.789 87.5506 151.672 89.55 149.683C91.5495 147.694 92.6728 144.997 92.6728 142.185V73.0329H93.3452V59.9911Z" fill="#3F3D56"/>
<path d="M82.4429 33.8237H77.3485C77.5828 34.395 77.6722 35.0148 77.6089 35.6286C77.5456 36.2424 77.3315 36.8312 76.9855 37.3433C76.6395 37.8554 76.1722 38.2749 75.6248 38.5651C75.0773 38.8552 74.4666 39.007 73.8463 39.007H51.488C50.8677 39.007 50.2569 38.8552 49.7094 38.5651C49.162 38.2749 48.6947 37.8554 48.3487 37.3433C48.0027 36.8312 47.7886 36.2423 47.7253 35.6286C47.662 35.0148 47.7514 34.395 47.9857 33.8237H43.2276C41.1159 33.8237 39.0908 34.6581 37.5976 36.1432C36.1045 37.6283 35.2656 39.6426 35.2656 41.7428V142.111C35.2656 143.151 35.4716 144.181 35.8717 145.141C36.2718 146.102 36.8583 146.975 37.5976 147.71C38.337 148.446 39.2147 149.029 40.1807 149.427C41.1466 149.825 42.182 150.03 43.2276 150.03H82.4429C83.4885 150.03 84.5238 149.825 85.4898 149.427C86.4558 149.029 87.3335 148.446 88.0728 147.71C88.8122 146.975 89.3986 146.102 89.7988 145.141C90.1989 144.181 90.4048 143.151 90.4048 142.111V41.7428C90.4048 40.7029 90.1989 39.6731 89.7988 38.7123C89.3986 37.7515 88.8122 36.8785 88.0728 36.1432C87.3335 35.4078 86.4558 34.8245 85.4898 34.4265C84.5238 34.0286 83.4885 33.8237 82.4429 33.8237Z" fill="url(#paint0_linear_724_932)"/>
<path d="M56.5393 70.3001L57.6237 74.0361L71.4808 73.793L71.3593 66.9476C71.2632 61.5293 67.4132 56.856 61.9656 56.9516C56.5181 57.0472 53.0543 61.6279 53.1504 67.0462L53.9418 74.1007L56.2011 74.0611L56.5393 70.3001Z" fill="#2F2E41"/>
<path d="M62.5845 72.9122C66.0182 72.9122 68.8018 70.1436 68.8018 66.7283C68.8018 63.3131 66.0182 60.5444 62.5845 60.5444C59.1508 60.5444 56.3672 63.3131 56.3672 66.7283C56.3672 70.1436 59.1508 72.9122 62.5845 72.9122Z" fill="#FFB6B6"/>
<path d="M74.9608 76.3718L74.82 78.9728C71.8361 82.0599 67.7657 83.8771 63.4635 84.0428C59.1613 84.2086 54.9618 82.71 51.7467 79.8618C51.603 79.736 51.4622 79.6045 51.3242 79.4702C52.1863 78.6184 54.5659 76.5147 57.2069 76.3203L69.1157 75.5743C69.1157 75.5743 73.6274 75.0484 74.9608 76.3718Z" fill="#CCCCCC"/>
<path d="M69.3916 62.3861C69.3834 61.9126 69.2344 61.4521 68.9634 61.0627C68.9348 61.0227 68.906 60.9856 68.8772 60.9484C68.6469 60.656 68.3516 60.4205 68.0146 60.2603C67.6776 60.1002 67.308 60.0197 66.9345 60.0252L62.4659 60.1052L58.0001 60.1824C57.3603 60.1951 56.7516 60.4594 56.3073 60.9174C55.863 61.3754 55.6192 61.9898 55.6292 62.6262L56.6925 64.7556L57.3046 65.979L57.4052 65.9218C61.2703 63.761 62.8509 63.7324 67.9663 65.7418L68.0697 65.7818L68.4749 64.7499L69.3945 62.409L69.3916 62.3861Z" fill="#2F2E41"/>
<path d="M75.9662 77.6612C74.6912 79.2827 73.1266 80.6567 71.3509 81.7142L71.0723 76.7465L74.9604 76.3721C74.9604 76.3721 75.426 76.3721 75.9662 77.6612Z" fill="#CCCCCC"/>
<path d="M62.8186 84.3353C58.6655 84.34 54.6561 82.8237 51.5552 80.0758C51.4087 79.9477 51.2641 79.8127 51.1225 79.6747C49.4532 78.1066 48.1252 76.2145 47.2206 74.1155C46.316 72.0164 45.8541 69.7551 45.8634 67.4714C45.8634 62.9988 47.6498 58.7094 50.8295 55.5468C54.0092 52.3842 58.3218 50.6074 62.8186 50.6074C67.3154 50.6074 71.628 52.3842 74.8077 55.5468C77.9874 58.7094 79.7737 62.9988 79.7737 67.4714C79.7878 71.2292 78.5259 74.8817 76.1925 77.8372C74.6077 79.8614 72.5791 81.4991 70.2614 82.6252C67.9437 83.7513 65.398 84.3362 62.8186 84.3353ZM62.8186 51.1791C58.4757 51.184 54.3122 52.902 51.2413 55.9564C48.1705 59.0107 46.4431 63.1519 46.4382 67.4714C46.4293 69.6783 46.8758 71.8635 47.7502 73.8918C48.6246 75.9201 49.9082 77.7483 51.5216 79.2634C51.6589 79.3971 51.796 79.5251 51.9359 79.6475C53.6116 81.1252 55.5738 82.246 57.7016 82.9407C59.8294 83.6354 62.0777 83.8892 64.3079 83.6866C66.5381 83.4841 68.703 82.8293 70.669 81.7627C72.6351 80.6962 74.3607 79.2404 75.7395 77.4852C77.9938 74.6301 79.2127 71.1016 79.199 67.4714C79.194 63.1519 77.4667 59.0107 74.3958 55.9564C71.325 52.902 67.1614 51.184 62.8186 51.1791Z" fill="#3F3D56"/>
<path d="M78.0612 107.715H48.1918C47.894 107.715 47.5991 107.657 47.3239 107.543C47.0487 107.43 46.7987 107.264 46.5881 107.054C46.3775 106.845 46.2104 106.596 46.0965 106.323C45.9825 106.049 45.9238 105.756 45.9238 105.459C45.9238 105.163 45.9825 104.87 46.0965 104.596C46.2104 104.322 46.3775 104.074 46.5881 103.864C46.7987 103.655 47.0487 103.489 47.3239 103.375C47.5991 103.262 47.894 103.204 48.1918 103.204H78.0612C78.359 103.204 78.6539 103.262 78.9291 103.375C79.2043 103.489 79.4543 103.655 79.6649 103.864C79.8755 104.074 80.0426 104.322 80.1565 104.596C80.2705 104.87 80.3292 105.163 80.3292 105.459C80.3292 105.756 80.2705 106.049 80.1565 106.323C80.0426 106.596 79.8755 106.845 79.6649 107.054C79.4543 107.264 79.2043 107.43 78.9291 107.543C78.6539 107.657 78.359 107.715 78.0612 107.715Z" fill="#F1B814"/>
<path d="M78.0612 114.861H48.1918C47.5903 114.861 47.0134 114.624 46.5881 114.2C46.1628 113.777 45.9238 113.204 45.9238 112.605C45.9238 112.007 46.1628 111.433 46.5881 111.01C47.0134 110.587 47.5903 110.35 48.1918 110.35H78.0612C78.6627 110.35 79.2396 110.587 79.6649 111.01C80.0902 111.433 80.3292 112.007 80.3292 112.605C80.3292 113.204 80.0902 113.777 79.6649 114.2C79.2396 114.624 78.6627 114.861 78.0612 114.861Z" fill="#F1B814"/>
<path d="M70.7896 100.483H55.4633C54.8618 100.483 54.2849 100.245 53.8596 99.8221C53.4343 99.399 53.1953 98.8253 53.1953 98.227C53.1953 97.6287 53.4343 97.0549 53.8596 96.6319C54.2849 96.2089 54.8618 95.9712 55.4633 95.9712H70.7896C71.3911 95.9712 71.968 96.2089 72.3933 96.6319C72.8187 97.0549 73.0576 97.6287 73.0576 98.227C73.0576 98.8253 72.8187 99.399 72.3933 99.8221C71.968 100.245 71.3911 100.483 70.7896 100.483Z" fill="#F1B814"/>
<path d="M172.713 153H0.287375C0.211159 153 0.138068 152.97 0.0841745 152.916C0.0302811 152.863 0 152.79 0 152.714C0 152.638 0.0302811 152.566 0.0841745 152.512C0.138068 152.458 0.211159 152.428 0.287375 152.428H172.713C172.789 152.428 172.862 152.458 172.916 152.512C172.97 152.566 173 152.638 173 152.714C173 152.79 172.97 152.863 172.916 152.916C172.862 152.97 172.789 153 172.713 153Z" fill="#CACACA"/>
</g>
<defs>
<linearGradient id="paint0_linear_724_932" x1="62.8352" y1="33.8237" x2="62.8352" y2="150.03" gradientUnits="userSpaceOnUse">
<stop stop-color="#7DA9E3"/>
<stop offset="1" stop-color="#918EFF" stop-opacity="0"/>
</linearGradient>
<clipPath id="clip0_724_932">
<rect width="173" height="153" fill="white"/>
</clipPath>
</defs>
</svg>
