<svg width="35" height="32" viewBox="0 0 35 32" fill="none" xmlns="http://www.w3.org/2000/svg">
<path d="M13.2666 30.0654H21.7188V19.4014C21.7188 19.0693 21.6162 18.8008 21.4111 18.5957C21.2061 18.3906 20.9375 18.2881 20.6055 18.2881H14.3945C14.0527 18.2881 13.7793 18.3906 13.5742 18.5957C13.3691 18.8008 13.2666 19.0693 13.2666 19.4014V30.0654ZM7.53906 31.5742H27.3584C28.4033 31.5742 29.2139 31.291 29.79 30.7246C30.3662 30.1582 30.6543 29.3623 30.6543 28.3369V12.1504L28.2959 10.5391V27.7363C28.2959 28.2148 28.1738 28.5811 27.9297 28.835C27.6855 29.0889 27.3291 29.2158 26.8604 29.2158H8.03711C7.56836 29.2158 7.20703 29.0889 6.95312 28.835C6.70898 28.5811 6.58691 28.2148 6.58691 27.7363V10.5537L4.22852 12.1504V28.3369C4.22852 29.3623 4.5166 30.1582 5.09277 30.7246C5.67871 31.291 6.49414 31.5742 7.53906 31.5742ZM0.00976562 15.2705C0.00976562 15.5732 0.12207 15.8467 0.34668 16.0908C0.571289 16.3252 0.878906 16.4424 1.26953 16.4424C1.47461 16.4424 1.66016 16.3936 1.82617 16.2959C2.00195 16.1982 2.16797 16.0908 2.32422 15.9736L16.9873 3.66895C17.1533 3.52246 17.3242 3.44922 17.5 3.44922C17.6855 3.44922 17.8613 3.52246 18.0273 3.66895L32.6904 15.9736C32.8369 16.0908 32.9932 16.1982 33.1592 16.2959C33.335 16.3936 33.5254 16.4424 33.7305 16.4424C34.0723 16.4424 34.3652 16.3447 34.6094 16.1494C34.8535 15.9443 34.9756 15.666 34.9756 15.3145C34.9756 14.9043 34.8242 14.5723 34.5215 14.3184L19.2725 1.50098C18.7256 1.04199 18.1348 0.8125 17.5 0.8125C16.875 0.8125 16.2891 1.04199 15.7422 1.50098L0.478516 14.3184C0.166016 14.5723 0.00976562 14.8896 0.00976562 15.2705ZM26.9775 8.66406L30.6543 11.7695V5.00195C30.6543 4.67969 30.5566 4.42578 30.3613 4.24023C30.1758 4.04492 29.9219 3.94727 29.5996 3.94727H28.0322C27.7197 3.94727 27.4658 4.04492 27.2705 4.24023C27.0752 4.42578 26.9775 4.67969 26.9775 5.00195V8.66406Z" fill="url(#paint0_linear_1361_140)"/>
<defs>
<linearGradient id="paint0_linear_1361_140" x1="-4" y1="-0.12636" x2="43.0231" y2="27.9081" gradientUnits="userSpaceOnUse">
<stop stop-color="#8D8D8D"/>
<stop offset="1" stop-color="#3F3F3F"/>
</linearGradient>
</defs>
</svg>
