<svg width="24" height="24" viewBox="0 0 24 24" fill="none" xmlns="http://www.w3.org/2000/svg">
<path d="M11.998 12.0002C12.5503 12.0002 12.998 11.5525 12.998 11.0002C12.998 10.448 12.5503 10.0002 11.998 10.0002C11.4458 10.0002 10.998 10.448 10.998 11.0002C10.998 11.5525 11.4458 12.0002 11.998 12.0002Z" fill="#231F20"/>
<path d="M15.9961 12.0002C16.5484 12.0002 16.9961 11.5525 16.9961 11.0002C16.9961 10.448 16.5484 10.0002 15.9961 10.0002C15.4438 10.0002 14.9961 10.448 14.9961 11.0002C14.9961 11.5525 15.4438 12.0002 15.9961 12.0002Z" fill="#231F20"/>
<path d="M7.99805 12.0002C8.55033 12.0002 8.99805 11.5525 8.99805 11.0002C8.99805 10.448 8.55033 10.0002 7.99805 10.0002C7.44576 10.0002 6.99805 10.448 6.99805 11.0002C6.99805 11.5525 7.44576 12.0002 7.99805 12.0002Z" fill="#231F20"/>
<path d="M18.998 3H4.99805C4.2024 3 3.43934 3.31607 2.87673 3.87868C2.31412 4.44129 1.99805 5.20435 1.99805 6V21C1.99835 21.1772 2.04574 21.3511 2.13535 21.504C2.22496 21.6569 2.35358 21.7832 2.50805 21.87C2.6575 21.9547 2.82626 21.9995 2.99805 22C3.17753 22 3.35369 21.9516 3.50805 21.86L7.99805 19.14C8.16401 19.0412 8.35504 18.9926 8.54805 19H18.998C19.7937 19 20.5568 18.6839 21.1194 18.1213C21.682 17.5587 21.998 16.7957 21.998 16V6C21.998 5.20435 21.682 4.44129 21.1194 3.87868C20.5568 3.31607 19.7937 3 18.998 3ZM19.998 16C19.998 16.2652 19.8927 16.5196 19.7052 16.7071C19.5176 16.8946 19.2633 17 18.998 17H8.54805C8.00187 16.9996 7.46594 17.1482 6.99805 17.43L3.99805 19.23V6C3.99805 5.73478 4.1034 5.48043 4.29094 5.29289C4.47848 5.10536 4.73283 5 4.99805 5H18.998C19.2633 5 19.5176 5.10536 19.7052 5.29289C19.8927 5.48043 19.998 5.73478 19.998 6V16Z" fill="#231F20"/>
</svg>
