<svg width="35" height="32" viewBox="0 0 35 32" fill="none" xmlns="http://www.w3.org/2000/svg">
<path d="M21.2646 29.2158H13.7061V19.5332C13.7061 19.1914 13.8086 18.9229 14.0137 18.7275C14.2285 18.5225 14.502 18.4199 14.834 18.4199H20.1514C20.4932 18.4199 20.7617 18.5225 20.957 18.7275C21.1621 18.9229 21.2646 19.1914 21.2646 19.5332V29.2158ZM4.58008 28.3369C4.58008 29.3623 4.86816 30.1582 5.44434 30.7246C6.03027 31.291 6.84082 31.5742 7.87598 31.5742H27.1387C28.1641 31.5742 28.9648 31.291 29.541 30.7246C30.127 30.1582 30.4199 29.3623 30.4199 28.3369V16.7354L18.3789 6.64258C17.793 6.14453 17.207 6.14453 16.6211 6.64258L4.58008 16.7354V28.3369ZM0.00976562 15.2705C0.00976562 15.5732 0.12207 15.8467 0.34668 16.0908C0.571289 16.3252 0.878906 16.4424 1.26953 16.4424C1.47461 16.4424 1.66016 16.3936 1.82617 16.2959C2.00195 16.1982 2.16797 16.0908 2.32422 15.9736L16.9873 3.66895C17.1533 3.52246 17.3242 3.44922 17.5 3.44922C17.6855 3.44922 17.8613 3.52246 18.0273 3.66895L32.6904 15.9736C32.8369 16.0908 32.9932 16.1982 33.1592 16.2959C33.335 16.3936 33.5254 16.4424 33.7305 16.4424C34.0723 16.4424 34.3652 16.3447 34.6094 16.1494C34.8535 15.9443 34.9756 15.666 34.9756 15.3145C34.9756 14.9043 34.8242 14.5723 34.5215 14.3184L19.2725 1.50098C18.7256 1.04199 18.1348 0.8125 17.5 0.8125C16.875 0.8125 16.2891 1.04199 15.7422 1.50098L0.478516 14.3184C0.166016 14.5723 0.00976562 14.8896 0.00976562 15.2705ZM26.7432 8.66406L30.4199 11.7695V5.00195C30.4199 4.67969 30.3223 4.42578 30.127 4.24023C29.9414 4.04492 29.6875 3.94727 29.3652 3.94727H27.7979C27.4854 3.94727 27.2314 4.04492 27.0361 4.24023C26.8408 4.42578 26.7432 4.67969 26.7432 5.00195V8.66406Z" fill="url(#paint0_linear_1361_474)"/>
<defs>
<linearGradient id="paint0_linear_1361_474" x1="-4" y1="0" x2="39" y2="35" gradientUnits="userSpaceOnUse">
<stop stop-color="white"/>
<stop offset="1" stop-color="#ECECEC"/>
</linearGradient>
</defs>
</svg>
