<svg width="30" height="31" viewBox="0 0 30 31" fill="none" xmlns="http://www.w3.org/2000/svg">
<path d="M15 30.2744C17.041 30.2744 18.96 29.8838 20.7568 29.1025C22.5635 28.3213 24.1553 27.2422 25.5322 25.8652C26.9092 24.4883 27.9883 22.9014 28.7695 21.1045C29.5508 19.2979 29.9414 17.374 29.9414 15.333C29.9414 13.292 29.5508 11.373 28.7695 9.57617C27.9883 7.76953 26.9092 6.17773 25.5322 4.80078C24.1553 3.42383 22.5635 2.34473 20.7568 1.56348C18.9502 0.782227 17.0264 0.391602 14.9854 0.391602C12.9443 0.391602 11.0205 0.782227 9.21387 1.56348C7.41699 2.34473 5.83008 3.42383 4.45312 4.80078C3.08594 6.17773 2.01172 7.76953 1.23047 9.57617C0.449219 11.373 0.0585938 13.292 0.0585938 15.333C0.0585938 17.374 0.449219 19.2979 1.23047 21.1045C2.01172 22.9014 3.09082 24.4883 4.46777 25.8652C5.84473 27.2422 7.43164 28.3213 9.22852 29.1025C11.0352 29.8838 12.959 30.2744 15 30.2744ZM15 27.7842C13.2715 27.7842 11.6553 27.4619 10.1514 26.8174C8.64746 26.1729 7.32422 25.2842 6.18164 24.1514C5.04883 23.0088 4.16016 21.6855 3.51562 20.1816C2.88086 18.6777 2.56348 17.0615 2.56348 15.333C2.56348 13.6045 2.88086 11.9883 3.51562 10.4844C4.16016 8.98047 5.04883 7.65723 6.18164 6.51465C7.31445 5.37207 8.63281 4.4834 10.1367 3.84863C11.6406 3.2041 13.2568 2.88184 14.9854 2.88184C16.7139 2.88184 18.3301 3.2041 19.834 3.84863C21.3379 4.4834 22.6611 5.37207 23.8037 6.51465C24.9463 7.65723 25.8398 8.98047 26.4844 10.4844C27.1289 11.9883 27.4512 13.6045 27.4512 15.333C27.4512 17.0615 27.1289 18.6777 26.4844 20.1816C25.8496 21.6855 24.9609 23.0088 23.8184 24.1514C22.6855 25.2842 21.3623 26.1729 19.8486 26.8174C18.3447 27.4619 16.7285 27.7842 15 27.7842ZM8.29102 22.7451H21.6797C21.9727 22.7451 22.1875 22.6621 22.3242 22.4961C22.4707 22.3203 22.5439 22.0957 22.5439 21.8223C22.5439 21.4219 22.3877 20.9043 22.0752 20.2695C21.7725 19.625 21.3086 18.9854 20.6836 18.3506C20.0684 17.7061 19.2871 17.1641 18.3398 16.7246C17.3926 16.2852 16.2744 16.0654 14.9854 16.0654C13.6963 16.0654 12.5781 16.2852 11.6309 16.7246C10.6836 17.1641 9.89746 17.7061 9.27246 18.3506C8.65723 18.9854 8.19336 19.625 7.88086 20.2695C7.57812 20.9043 7.42676 21.4219 7.42676 21.8223C7.42676 22.0957 7.49512 22.3203 7.63184 22.4961C7.77832 22.6621 7.99805 22.7451 8.29102 22.7451ZM14.9854 14.8643C15.6787 14.874 16.3086 14.6982 16.875 14.3369C17.4512 13.9756 17.9053 13.4873 18.2373 12.8721C18.5791 12.2471 18.75 11.5439 18.75 10.7627C18.75 10.0303 18.5791 9.36133 18.2373 8.75586C17.9053 8.14062 17.4512 7.65234 16.875 7.29102C16.3086 6.91992 15.6787 6.73438 14.9854 6.73438C14.292 6.73438 13.6572 6.91992 13.0811 7.29102C12.5146 7.65234 12.0605 8.14062 11.7188 8.75586C11.3867 9.36133 11.2207 10.0303 11.2207 10.7627C11.2207 11.5439 11.3867 12.2422 11.7188 12.8574C12.0605 13.4727 12.5146 13.9609 13.0811 14.3223C13.6572 14.6836 14.292 14.8643 14.9854 14.8643Z" fill="url(#paint0_linear_1361_143)"/>
<defs>
<linearGradient id="paint0_linear_1361_143" x1="-3" y1="-2.21718" x2="39.7185" y2="19.105" gradientUnits="userSpaceOnUse">
<stop stop-color="#8D8D8D"/>
<stop offset="1" stop-color="#3F3F3F"/>
</linearGradient>
</defs>
</svg>
